<?xml version="1.0" encoding="utf-8"?>
<!-- Generator: Adobe Illustrator 28.3.0, SVG Export Plug-In . SVG Version: 6.00 Build 0)  -->
<svg version="1.1" id="Layer_1" xmlns="http://www.w3.org/2000/svg" xmlns:xlink="http://www.w3.org/1999/xlink" x="0px" y="0px"
	 viewBox="0 0 1147.3 360.5" style="enable-background:new 0 0 1147.3 360.5;" xml:space="preserve">
<style type="text/css">
	.st0{fill:#FFFFFF;}
</style>
<g>
	<g>
		<polygon class="st0" points="779.2,0 779.2,350 975.7,350 975.7,126.2 1093.7,126.2 1093.7,350 1147.3,350 1147.3,0 		"/>
		<polygon class="st0" points="1086.4,129.7 1009,152.6 1009,337.6 1086.4,360.5 		"/>
	</g>
	<g>
		<g>
			<path class="st0" d="M86.3,78.5c0.8,0.2,1.9,0.5,3.4,1c1.4,0.5,3.9,1.8,7.5,4c3.5,2.2,6.7,4.7,9.4,7.5c2.7,2.8,5.2,6.8,7.5,12.1
				c2.3,5.2,3.4,11,3.4,17.3c0,7.4-1.1,14-3.4,19.8c-2.3,5.8-5.2,10.5-8.7,14c-3.5,3.5-7.7,6.5-12.6,8.8c-4.8,2.3-9.5,3.9-14.1,4.8
				c-4.6,0.9-9.4,1.3-14.4,1.3h-58V0h57c15.1,0,27,3.7,35.5,11.2c8.5,7.5,12.8,17.6,12.8,30.3c0,4.2-0.5,8.1-1.4,11.7
				c-1,3.6-2.2,6.6-3.6,9.1c-1.4,2.4-3.1,4.6-5,6.6c-1.9,2-3.7,3.6-5.4,4.7c-1.8,1.1-3.4,2.1-4.8,2.9c-1.4,0.8-2.7,1.3-3.6,1.4
				L86.3,78.5z M64.1,12.1H19.2v60.6h40.1c5.6,0,10.6-0.4,15-1.3c4.3-0.9,8.4-2.4,12.2-4.6c3.8-2.2,6.7-5.3,8.7-9.4
				c2-4.1,3-9.1,3-15.1c0-5.5-1-10.2-2.9-14.2c-1.9-4-4.6-7.2-8-9.4c-3.4-2.3-7-3.9-10.9-5C72.5,12.6,68.4,12.1,64.1,12.1z
				 M64.8,157c8.9,0,16.3-1.7,22.5-5.2c6.1-3.5,10.5-7.8,13.2-13c2.7-5.2,4-11.1,4-17.7c0-6.6-1.2-12.3-3.7-17.1
				c-2.5-4.8-6-8.6-10.4-11.3c-4.4-2.7-9.3-4.7-14.6-5.9c-5.3-1.2-11.2-1.8-17.6-1.8H19.2V157H64.8z"/>
			<path class="st0" d="M252.4,152.4c0,2.7,0.2,5.5,0.6,8.3c0.4,2.8,0.9,5.6,1.6,8.3h-12.8c-1.6-6-2.4-11.4-2.4-16.4v-27.5
				c0-6-1.3-11.3-4-16.1c-2.7-4.7-6.1-8.4-10.3-11c-4.2-2.6-8.6-4.5-13.3-5.9c-4.7-1.4-9.3-2.1-13.8-2.1h-40.3v79H145V0h58.7
				c16.4,0,28.7,4.2,36.9,12.7c8.2,8.5,12.3,19,12.3,31.8c0,4.7-0.6,9-1.7,13c-1.1,4-2.6,7.4-4.3,10c-1.8,2.7-3.7,5-5.9,7.1
				c-2.2,2.1-4.3,3.7-6.5,4.8c-2.2,1.1-4.2,2.1-6,2.8c-1.9,0.7-3.3,1.2-4.5,1.6l-1.7,0.2c7.1,0,13.9,3.9,20.4,11.6
				c6.5,7.7,9.8,17.4,9.8,29c0,3.1,0,7.8,0,14.2C252.4,145.3,252.4,149.8,252.4,152.4z M197.4,78c6.9,0,13.5-1.1,19.7-3.3
				c6.2-2.2,11.5-5.9,15.8-11.1c4.3-5.2,6.5-11.6,6.5-19c0-21.7-12.9-32.6-38.6-32.6h-43V78H197.4z"/>
			<path class="st0" d="M347.6,0l59.6,169h-13.5l-17.1-48.8h-76.3L283.1,169h-13.5L329.2,0H347.6z M304.8,107.5H372l-33.6-95.1
				L304.8,107.5z"/>
			<path class="st0" d="M579.4,0h13.3L547,168.1l-0.2,1H534l-0.2-1L495.1,25.6l-38.6,142.5l-0.5,1h-12.6l-0.2-1L397.6,0h13.3
				l38.9,143.9L488.8,0h12.6l39.1,143.9L579.4,0z"/>
			<path class="st0" d="M726.9,0h12.8v169h-17.9L626.2,15.7V169h-12.8V0h17.9l95.6,153.3V0z"/>
		</g>
		<g>
			<path class="st0" d="M58.5,256.6c17.7,3.7,30.5,9.6,38.3,17.7c7.8,8.1,11.7,18.5,11.7,31.2c0,13.5-4.6,24.3-13.9,32.4
				C85.4,345.9,72.5,350,56,350c-7.2,0-13.8-0.8-19.7-2.5c-6-1.7-10.9-3.9-14.7-6.5c-3.8-2.7-7.2-5.6-10-8.8
				c-2.8-3.2-4.9-6.4-6.3-9.6c-1.4-3.2-2.5-6.2-3.4-8.8c-0.9-2.7-1.5-4.9-1.6-6.5L0,304.5h12.4c0.1,0.9,0.4,2.1,0.8,3.7
				c0.4,1.5,1.5,4.3,3.4,8.3c1.9,4,4.3,7.5,7.1,10.4c2.8,3,7.2,5.7,13,8.1c5.8,2.4,12.4,3.7,19.7,3.7c11.6,0,21.1-2.6,28.3-7.9
				c7.3-5.3,10.9-13.4,10.9-24.4c0-5.7-0.9-10.6-2.8-14.8c-1.8-4.2-4.7-7.8-8.5-10.8c-3.8-3-8.1-5.4-13-7.3
				c-4.8-1.9-10.8-3.7-17.8-5.4c-7-1.7-13.2-3.6-18.4-5.7c-5.2-2.1-10.1-4.9-14.7-8.1c-4.6-3.3-8.1-7.4-10.4-12.3
				c-2.4-4.9-3.6-10.5-3.6-16.8c0-12.9,4.5-23,13.5-30.3c9-7.3,20.6-11,34.7-11c6.6,0,12.6,0.8,18,2.3c5.4,1.5,9.9,3.5,13.3,6
				c3.4,2.4,6.5,5.2,9.1,8.1c2.6,3,4.5,5.9,5.7,8.8c1.2,2.9,2.2,5.6,3,8c0.8,2.4,1.2,4.4,1.4,6l0.2,2.3H93.2c-0.2-0.5-0.3-1-0.3-1.7
				c-0.1-0.7-0.5-2.1-1.1-4.1c-0.7-2.1-1.5-4.1-2.5-6c-1-1.9-2.5-4-4.5-6.3c-2-2.3-4.3-4.2-6.9-5.9c-2.6-1.6-6-3-10.1-4.1
				c-4.1-1.1-8.6-1.7-13.5-1.7c-11.2,0-19.7,2.6-25.7,7.9c-6,5.3-9,12.3-9,21c0,8.6,2.9,15.3,8.8,20.2
				C34.2,249.5,44.3,253.5,58.5,256.6z"/>
			<path class="st0" d="M190,186.6c8.7,0,16.6,1.5,23.6,4.5c7,3,12.9,8,17.4,14.9c4.6,7,6.9,15.4,6.9,25.4c0,15-4.6,26.4-13.8,34.2
				c-9.2,7.8-21.1,11.7-35.8,11.7h-41.8v70h-12.2V186.6h12.2H190z M189.6,265.8c4.7,0,9.1-0.5,13.1-1.6c4-1.1,7.7-2.8,11.2-5.3
				c3.5-2.4,6.3-6,8.3-10.6c2-4.6,3-10.1,3-16.5c0-6.4-1.1-11.9-3.3-16.5c-2.2-4.6-5.1-8.1-8.7-10.4c-3.6-2.4-7.3-4.1-11-5.2
				c-3.8-1.1-7.6-1.6-11.6-1.6h-43.8v67.7H189.6z"/>
			<path class="st0" d="M302.7,186.6l56.7,160.7h-12.9l-16.3-46.4h-72.5l-16.3,46.4h-12.9l56.7-160.7H302.7z M262.1,288.7h63.8
				L294,198.3L262.1,288.7z"/>
			<path class="st0" d="M435.6,338.3c6.1,0,12-1.2,17.6-3.7c5.6-2.4,10.1-5.2,13.5-8.1c3.4-3,6.7-6.4,9.6-10.3
				c3-3.9,4.9-6.7,5.7-8.3c0.8-1.6,1.5-2.9,2-4h12.9c-0.5,1.4-1.2,3.1-2.2,5.2c-1,2.1-3.3,5.7-7,11c-3.7,5.3-7.7,9.9-11.9,13.9
				c-4.3,4-10.1,7.7-17.3,11c-7.3,3.4-14.9,5-22.8,5c-20.4,0-36.9-7.8-49.6-23.3c-12.7-15.5-19-35.5-19-59.8
				c0-25.1,6.3-45.2,18.9-60.4c12.6-15.1,29.2-22.7,49.7-22.7c6.6,0,12.7,0.9,18.5,2.6c5.7,1.8,10.6,4,14.7,6.7
				c4.1,2.7,7.8,5.7,11.1,9c3.4,3.3,6,6.5,8,9.8c2,3.2,3.7,6.2,5.2,8.8c1.5,2.7,2.5,4.9,3.1,6.8l0.7,2.5H484
				c-0.3-0.9-0.8-2.1-1.6-3.7c-0.8-1.5-2.6-4.2-5.4-8.1c-2.8-3.9-5.9-7.3-9.3-10.3c-3.4-3-8-5.7-13.8-8.1
				c-5.8-2.4-11.9-3.7-18.4-3.7c-17,0-30.7,6.6-41.2,19.9c-10.5,13.2-15.7,30.3-15.7,51.1c0,13,2.4,24.9,7.2,35.8
				c4.8,10.9,11.6,19.5,20.3,25.9C415,335.1,424.8,338.3,435.6,338.3z"/>
			<path class="st0" d="M532,335.1h85.8v12.2h-98V186.6h95.2v12.2H532v62.2h77.1v11.9H532V335.1z"/>
			<path class="st0" d="M689.7,256.6c17.7,3.7,30.5,9.6,38.3,17.7c7.8,8.1,11.7,18.5,11.7,31.2c0,13.5-4.6,24.3-13.9,32.4
				c-9.3,8.1-22.1,12.2-38.7,12.2c-7.2,0-13.8-0.8-19.7-2.5c-6-1.7-10.9-3.9-14.7-6.5c-3.8-2.7-7.2-5.6-10-8.8
				c-2.8-3.2-4.9-6.4-6.3-9.6c-1.4-3.2-2.5-6.2-3.4-8.8c-0.9-2.7-1.5-4.9-1.6-6.5l-0.2-2.5h12.4c0.1,0.9,0.4,2.1,0.8,3.7
				c0.4,1.5,1.5,4.3,3.4,8.3c1.9,4,4.3,7.5,7.1,10.4c2.8,3,7.2,5.7,13,8.1c5.8,2.4,12.4,3.7,19.7,3.7c11.6,0,21.1-2.6,28.3-7.9
				c7.3-5.3,10.9-13.4,10.9-24.4c0-5.7-0.9-10.6-2.8-14.8c-1.8-4.2-4.7-7.8-8.5-10.8c-3.8-3-8.1-5.4-13-7.3
				c-4.8-1.9-10.8-3.7-17.8-5.4c-7-1.7-13.2-3.6-18.4-5.7c-5.2-2.1-10.1-4.9-14.7-8.1c-4.6-3.3-8.1-7.4-10.4-12.3
				c-2.4-4.9-3.6-10.5-3.6-16.8c0-12.9,4.5-23,13.5-30.3c9-7.3,20.6-11,34.7-11c6.6,0,12.6,0.8,18,2.3c5.4,1.5,9.9,3.5,13.3,6
				c3.4,2.4,6.5,5.2,9.1,8.1c2.6,3,4.5,5.9,5.7,8.8c1.2,2.9,2.2,5.6,3,8c0.8,2.4,1.2,4.4,1.4,6l0.2,2.3h-12.4
				c-0.2-0.5-0.3-1-0.3-1.7c-0.1-0.7-0.5-2.1-1.1-4.1c-0.7-2.1-1.5-4.1-2.5-6c-1-1.9-2.5-4-4.5-6.3c-2-2.3-4.3-4.2-6.9-5.9
				c-2.6-1.6-6-3-10.1-4.1c-4.1-1.1-8.6-1.7-13.5-1.7c-11.2,0-19.7,2.6-25.7,7.9c-6,5.3-9,12.3-9,21c0,8.6,2.9,15.3,8.8,20.2
				C665.4,249.5,675.5,253.5,689.7,256.6z"/>
		</g>
	</g>
</g>
</svg>
